<svg width="1626" height="1940" viewBox="0 0 1626 1940" fill="none" xmlns="http://www.w3.org/2000/svg">
<path d="M513.871 457.151L514.538 460.827C516.79 473.231 520.728 485.325 526.307 496.612C526.823 497.655 527.338 498.59 527.94 499.323C528.53 500.04 529.11 500.451 529.729 500.616L529.739 500.618C530.649 500.866 531.625 500.617 532.791 499.733C533.974 498.837 535.092 497.471 536.091 496.048C569.039 448.721 611.159 407.815 659.412 376.256L659.413 376.256C661.63 374.808 663.488 373.552 664.625 371.814C666.095 369.536 666.247 366.602 666.427 363.127L666.436 362.964C667.527 341.693 673.517 320.694 683.807 302.031L687.554 303.117L687.31 307.155C686.232 324.98 685.153 342.804 684.075 360.629C706.792 349.127 729.504 337.63 752.216 326.133C773.466 315.376 794.716 304.619 815.971 293.857C819.224 292.209 822.001 290.679 823.478 288.221L823.478 288.22C824.779 286.059 824.968 283.399 825.192 280.243C825.207 280.031 825.222 279.817 825.238 279.601L825.239 279.589C826.837 259.155 835.979 239.386 850.505 224.932L855.506 219.956L853.86 226.816L853.828 226.949C849.533 244.858 845.238 262.766 840.943 280.692C897.298 253.164 950.068 218.268 997.44 177.153L999.539 175.331L1000.6 177.901C1002.15 181.647 1001.48 185.43 999.999 188.766C998.528 192.085 996.166 195.172 993.967 197.729L993.966 197.73C955.776 242.089 909.306 279.283 857.664 306.852C869.197 317.835 885.017 324.279 900.954 324.4L901.486 328.324C887.097 332.413 871.403 331.827 857.369 326.63M513.871 457.151L855.805 307.839C866.075 317.828 879.737 324.271 893.963 325.959C896.13 325.572 898.276 325.078 900.392 324.476L900.939 326.4L900.924 328.4C898.617 328.382 896.313 328.241 894.023 327.979C882.032 330.07 869.477 328.981 858.062 324.754C856.707 324.255 855.359 323.712 854.01 323.167C849.654 321.41 845.287 319.648 840.631 319.397C833.143 319.002 826.07 322.559 819.395 326.006M513.871 457.151C510.562 435.619 512.276 413.29 519.187 392.639L519.188 392.638C526.077 372.036 538.17 357.078 558.153 348.833L573.132 344.116L573.442 344.019L573.706 343.827L575.55 342.488L575.92 342.22L576.136 341.817L577.695 338.918L577.744 338.827L577.784 338.731C600.287 284.001 632.817 237.394 681.192 202.616L681.192 202.616C723.459 172.218 773.104 152.728 824.369 143.166C819.47 153.302 815.898 164.073 813.788 175.149L813.236 178.05L816.135 177.486C869.798 167.053 923.783 150.385 972.994 126.121C973.722 125.77 979.174 123.085 984.436 120.491C987.082 119.187 989.684 117.904 991.626 116.947L993.964 115.793L994.617 115.472L994.788 115.387L994.832 115.365L994.843 115.36L994.846 115.359L994.847 115.358C994.847 115.358 994.847 115.358 993.963 113.565L994.847 115.358L994.887 115.339L994.925 115.317L1016.27 103.594L1016.31 103.572L1016.35 103.548L1036.72 91.099L1036.76 91.0747L1036.8 91.0485L1056.38 77.7872L1056.42 77.7603L1056.46 77.7315L1075.06 63.7897L1075.1 63.7602L1075.14 63.7287L1093.03 48.8874L1093.07 48.8557L1093.11 48.8222L1109.97 33.3655L1110.02 33.3218L1110.06 33.275L1124.31 18.4111L1124.37 18.3496L1124.42 18.2834C1125.06 17.4871 1125.99 16.1102 1127.02 14.5784L1127.36 14.0755C1128.56 12.2934 1129.94 10.259 1131.38 8.34621C1132.83 6.41947 1134.27 4.69438 1135.59 3.49764C1136.24 2.89939 1136.81 2.48737 1137.27 2.24379C1137.58 2.08028 1137.79 2.02524 1137.9 2.00773C1137.9 2.01127 1137.9 2.01499 1137.91 2.01891C1138.05 2.1824 1138.25 2.52816 1138.47 3.15699C1138.91 4.41256 1139.24 6.31765 1139.43 8.79461C1139.83 13.7107 1139.67 20.3459 1139.26 27.2707C1138.55 39.1305 1137.09 51.5659 1136.44 57.1257C1136.33 58.0476 1136.24 58.7804 1136.18 59.2902L1136.18 59.291C1131.57 100.943 1121.49 142.004 1106.23 181.03L1106.23 181.031C1104.14 186.387 1102.06 191.743 1099.99 197.094C1091.12 219.971 1082.28 242.771 1072.26 265.161C1065.77 279.649 1059 293.984 1051.96 308.21C1051.96 308.211 1051.96 308.212 1051.96 308.213L1053.75 309.099C1052.98 310.642 1051.78 313.595 1050.31 317.206C1046.81 325.811 1041.79 338.157 1037.5 344.104C1036.11 344.61 1034.7 345.094 1033.28 345.555L513.871 457.151ZM857.369 326.63C857.368 326.63 857.368 326.629 857.367 326.629L858.059 324.762L857.371 326.631C857.371 326.631 857.37 326.63 857.369 326.63ZM857.369 326.63C855.985 326.121 854.611 325.566 853.269 325.025L853.029 324.928C851.6 324.352 850.206 323.793 848.807 323.29C846.01 322.285 843.295 321.544 840.526 321.394M840.526 321.394L840.63 319.409L840.523 321.394C840.524 321.394 840.525 321.394 840.526 321.394ZM840.526 321.394C833.669 321.032 827.08 324.288 820.317 327.781M820.317 327.781L819.395 326.006M820.317 327.781C780.726 348.335 741.161 368.894 703.109 391.972M820.317 327.781C820.316 327.781 820.314 327.782 820.313 327.783L819.395 326.006M819.395 326.006C779.045 346.955 738.65 367.944 699.849 391.614C700.936 391.734 702.022 391.853 703.109 391.972M707.932 409.007L708.172 407.021C706.725 406.847 705.274 406.651 703.821 406.455C696.853 405.515 689.842 404.569 683.01 405.967C673.174 407.965 664.964 414.573 657.587 421.357C639.276 438.197 623.315 457.585 610.295 478.793C604.411 488.365 599.031 498.619 597.604 509.772C595.431 526.7 605.069 538.38 615.805 549.973M707.932 409.007C706.418 408.824 704.923 408.623 703.443 408.425C696.486 407.49 689.879 406.603 683.411 407.927L683.408 407.927C674.164 409.805 666.31 416.052 658.941 422.829C640.766 439.544 624.923 458.788 611.999 479.84L611.998 479.841C606.14 489.372 600.958 499.32 599.588 510.026L599.587 510.026C597.548 525.911 606.471 536.946 617.213 548.549M707.932 409.007C728.593 411.5 749.806 409.474 769.641 403.129L769.25 399.236C755.533 397.73 741.823 396.225 728.112 394.719C719.779 393.803 711.445 392.888 703.109 391.972M617.213 548.549C617.191 548.53 617.17 548.51 617.148 548.491L615.805 549.973M617.213 548.549C617.233 548.571 617.253 548.592 617.272 548.614L615.805 549.973M617.213 548.549C641.541 570.59 668.083 592.43 700.651 598.415C727.36 603.318 755.117 596.389 780.301 585.291C809.618 572.37 838.992 556.057 865.683 538.362M615.805 549.973C640.132 572.016 667.071 594.278 700.29 600.382C727.558 605.388 755.749 598.296 781.107 587.121C810.55 574.145 840.037 557.766 866.826 540.005M865.683 538.362L865.648 538.389L866.826 540.005M865.683 538.362L879.043 528.622M865.683 538.362C865.696 538.354 865.708 538.346 865.721 538.338L866.826 540.005M866.826 540.005L880.257 530.213M999.354 180.787C1000.25 186.284 996.279 191.974 992.45 196.425L999.354 180.787ZM999.354 180.787C999.59 180.583 999.826 180.379 1000.06 180.174L998.751 178.664L996.902 179.427C996.989 179.637 997.066 179.85 997.133 180.064C949.631 221.044 896.765 255.807 840.339 283.21L999.354 180.787ZM1060.5 337.987C1052.23 342.604 1043.52 346.421 1034.53 349.358C1035.84 348.929 1036.98 347.892 1037.94 346.791C1038.21 346.476 1038.48 346.137 1038.75 345.777C1046.62 342.894 1054.24 339.323 1061.5 335.121C1061.17 336.078 1060.84 337.033 1060.5 337.987ZM1060.5 337.987C1033.75 413.781 972.762 480.616 912.955 532.96M1060.5 337.987C1061.39 337.492 1062.27 336.987 1063.15 336.474C1036.62 413.67 974.715 481.566 914.264 534.471M912.955 532.96C912.515 533.336 911.922 533.696 911.171 534.098C910.961 534.211 910.727 534.333 910.481 534.461C909.933 534.745 909.329 535.059 908.813 535.365L908.812 535.365C908.703 535.43 908.59 535.497 908.475 535.563M912.955 532.96C912.952 532.962 912.95 532.964 912.947 532.966L914.264 534.471M912.955 532.96C912.957 532.958 912.959 532.956 912.961 532.954L914.264 534.471M908.475 535.563C908.766 534.267 909.076 532.953 909.39 531.624C911.149 524.179 913.023 516.248 912.263 508.266L912.261 508.238L912.257 508.21C912.253 508.172 912.248 508.129 912.242 508.082C912.171 507.457 912.015 506.098 911.12 505.074L911.116 505.07C909.477 503.207 906.853 503.523 905.345 504.442L905.338 504.446L905.331 504.451C904.217 505.143 903.299 506.176 902.583 507.051C902.271 507.433 902.003 507.776 901.757 508.09C901.363 508.593 901.026 509.024 900.655 509.427L900.657 509.424L902.126 510.781M908.475 535.563C908.227 535.705 907.97 535.846 907.715 535.969C907.313 536.163 907.063 536.24 906.962 536.255C906.92 536.261 907.026 536.236 907.214 536.285C907.441 536.344 907.725 536.497 907.933 536.781C907.942 536.794 907.951 536.806 907.959 536.819L906.232 536.449M908.475 535.563C908.377 536 908.281 536.435 908.187 536.868C908.129 537.139 908.135 537.251 908.135 537.25C908.134 537.247 908.121 537.058 907.961 536.821L906.232 536.449M902.126 510.781L900.654 509.427L895.634 514.86M902.126 510.781L897.053 516.271M902.126 510.781C902.544 510.327 902.967 509.788 903.403 509.233C904.316 508.069 905.286 506.833 906.386 506.15C907.394 505.535 908.842 505.512 909.614 506.39C910.084 506.929 910.179 507.7 910.267 508.413L910.272 508.455C910.997 516.076 909.224 523.598 907.475 531.02C907.047 532.835 906.62 534.645 906.232 536.449M895.634 514.86L891.705 518.532M895.634 514.86L895.584 514.913L897.053 516.271M895.634 514.86L895.687 514.81L897.053 516.271M891.705 518.532L879.043 528.622M891.705 518.532L891.647 518.586L893.012 520.047M891.705 518.532L891.766 518.483L893.012 520.047M879.043 528.622L879.01 528.649L880.257 530.213M879.043 528.622L879.078 528.597L880.257 530.213M880.257 530.213L893.012 520.047M893.012 520.047L897.053 516.271M906.232 536.449C905.573 539.523 908.427 537.92 909.833 537.085C910.301 536.808 910.813 536.542 911.332 536.272C912.373 535.732 913.445 535.175 914.264 534.471M703.109 391.972C702.175 392.539 701.241 393.107 700.309 393.677M850.995 230.187C851.755 229.365 852.532 228.558 853.326 227.768L851.915 226.35L849.971 225.884L849.894 226.204C849.653 227.208 849.412 228.213 849.171 229.217C836.579 243.024 828.69 261.107 827.233 279.745C827.215 279.996 827.197 280.248 827.18 280.501C826.97 283.523 826.753 286.659 825.192 289.252C823.371 292.282 820.038 294.039 816.875 295.641C795.585 306.421 774.3 317.195 753.016 327.969C729.991 339.625 706.966 351.28 683.936 362.942L850.995 230.187ZM685.267 307.812C685.927 306.518 686.608 305.234 687.309 303.962L685.558 302.996L683.562 302.875L683.295 307.277C674.535 324.578 669.426 343.71 668.433 363.066C668.426 363.206 668.419 363.346 668.411 363.486C668.245 366.743 668.071 370.166 666.303 372.903C664.897 375.054 662.657 376.525 660.506 377.93L685.267 307.812Z" stroke="#33A571" stroke-width="4"/>
<mask id="path-2-inside-1_57_56" fill="white">
<path d="M1623.51 1849.29C1623.51 1782.85 1623.51 1716.42 1623.51 1649.96V1375.48C1623.51 1280.49 1632.66 1180.25 1615.87 1086.37C1598.76 990.798 1547.34 901.718 1473.11 839.125C1385.97 765.619 1280.82 740.349 1169.65 740.283C1099.14 740.239 1028.65 740.217 958.144 740.173C854.104 740.129 750.032 740.064 645.985 740.02C545.539 739.976 445.114 739.91 344.668 739.866C287.036 739.844 229.381 740.086 171.748 740.481C142.13 740.679 112.512 740.941 82.8942 741.227C68.4912 741.358 54.0666 741.512 39.6639 741.688C30.7719 741.797 13.1858 737.692 7.4554 746.452C4.2499 751.37 4.13957 757.627 4.13957 763.512C4.13957 778.287 4.13957 793.086 4.13957 807.861C4.13957 866.458 4.13957 925.083 4.13957 983.684C4.13957 995.294 10.7706 999.465 22.1874 999.513C170.255 1000.06 318.322 1000.47 466.368 1000.5C552.675 1000.5 638.981 1000.52 725.288 1000.54C798.926 1000.54 872.584 1000.56 946.225 1000.59C969.078 1000.59 991.956 1000.59 1014.82 1000.59C1063.56 1000.59 1114.1 996.896 1160.75 1013.74C1188.17 1023.64 1212.94 1040.43 1233.08 1061.51C1300.72 1132.32 1290.14 1226.99 1290.47 1317.05L1289.99 1332.88L1288.07 1354.26C1287.7 1358 1287.35 1361.73 1286.95 1365.46C1278.3 1313.36 1255.49 1266.2 1213.18 1232.97C1156.01 1188.04 1091.09 1192.04 1022.7 1191.99C942.802 1191.95 862.925 1191.88 783.031 1191.84C751.086 1191.84 719.119 1191.8 687.173 1191.77C597.2 1191.71 507.204 1191.67 417.231 1191.6C381.839 1191.58 346.381 1191.03 310.989 1191.54C250.744 1192.36 192.847 1183.15 134.621 1206.24C86.2755 1225.4 44.1203 1262.03 22.7138 1309.43C-14.5007 1391.83 5.50153 1500.6 4.3379 1588.57C3.76706 1630.68 4.27195 1672.84 4.24999 1714.95C4.20608 1775.23 19.5082 1832.27 62.6945 1876.61C97.5379 1912.37 145.84 1934.68 195.657 1938.04C195.371 1936.7 192.781 1937.84 194.142 1937.84C341.485 1937.95 488.807 1938.01 636.15 1938.08C739.23 1938.13 842.226 1938.1 945.282 1938.85C969.192 1939.02 993.119 1939.2 1017.03 1939.38C1076.69 1939.82 1139.46 1939.48 1191.47 1910.24C1220.38 1894 1244.29 1869.38 1261.22 1840.84C1275.03 1817.57 1284.34 1791.49 1287.08 1764.57C1290.94 1811.77 1291.69 1859.22 1289.3 1906.51C1288.6 1920.34 1286.29 1938.23 1304.19 1938.23C1358.59 1938.23 1413.02 1938.3 1467.42 1938.44C1494.63 1938.5 1521.83 1938.58 1549.03 1938.72C1562.65 1938.79 1576.23 1938.85 1589.85 1938.92C1598.52 1938.96 1616.06 1942.83 1621.2 1933.39C1623.46 1929.21 1623.53 1924.22 1623.53 1919.48C1623.53 1896.1 1623.53 1872.7 1623.53 1849.32L1623.51 1849.29ZM1222.05 1567.6L1221.57 1577.18L1220.14 1586.64L1217.79 1595.93L1214.55 1604.95L1210.43 1613.6L1205.5 1621.81L1199.77 1629.5L1193.31 1636.59L1186.2 1643L1178.49 1648.68L1170.26 1653.6L1161.59 1657.69L1152.56 1660.89L1143.28 1663.2L1133.79 1664.59L1124.21 1665.04L432.578 1663.84L423.006 1663.35L413.543 1661.93L404.256 1659.58L395.233 1656.33L386.581 1652.22L378.37 1647.29L370.686 1641.55L363.594 1635.1L357.184 1627.98L351.496 1620.28L346.579 1612.04L342.495 1603.38L339.289 1594.35L336.984 1585.06L335.601 1575.58L335.14 1566V1561.35L335.645 1551.77L337.072 1542.31L339.421 1533.03L342.67 1524L346.777 1515.35L351.716 1507.14L357.446 1499.46L363.902 1492.37L371.015 1485.95L378.722 1480.26L386.955 1475.35L395.627 1471.26L404.651 1468.06L413.938 1465.75L423.423 1464.37L432.995 1463.91L1124.64 1465.12L1134.21 1465.6L1143.67 1467.03L1152.95 1469.38L1161.98 1472.63L1170.63 1476.73L1178.84 1481.67L1186.53 1487.4L1193.62 1493.86L1200.03 1500.97L1205.72 1508.68L1210.64 1516.91L1214.72 1525.58L1217.92 1534.6L1220.23 1543.9L1221.61 1553.38L1222.08 1562.95V1567.6H1222.05Z"/>
</mask>
<path d="M1623.51 1849.29C1623.51 1782.85 1623.51 1716.42 1623.51 1649.96V1375.48C1623.51 1280.49 1632.66 1180.25 1615.87 1086.37C1598.76 990.798 1547.34 901.718 1473.11 839.125C1385.97 765.619 1280.82 740.349 1169.65 740.283C1099.14 740.239 1028.65 740.217 958.144 740.173C854.104 740.129 750.032 740.064 645.985 740.02C545.539 739.976 445.114 739.91 344.668 739.866C287.036 739.844 229.381 740.086 171.748 740.481C142.13 740.679 112.512 740.941 82.8942 741.227C68.4912 741.358 54.0666 741.512 39.6639 741.688C30.7719 741.797 13.1858 737.692 7.4554 746.452C4.2499 751.37 4.13957 757.627 4.13957 763.512C4.13957 778.287 4.13957 793.086 4.13957 807.861C4.13957 866.458 4.13957 925.083 4.13957 983.684C4.13957 995.294 10.7706 999.465 22.1874 999.513C170.255 1000.06 318.322 1000.47 466.368 1000.5C552.675 1000.5 638.981 1000.52 725.288 1000.54C798.926 1000.54 872.584 1000.56 946.225 1000.59C969.078 1000.59 991.956 1000.59 1014.82 1000.59C1063.56 1000.59 1114.1 996.896 1160.75 1013.74C1188.17 1023.64 1212.94 1040.43 1233.08 1061.51C1300.72 1132.32 1290.14 1226.99 1290.47 1317.05L1289.99 1332.88L1288.07 1354.26C1287.7 1358 1287.35 1361.73 1286.95 1365.46C1278.3 1313.36 1255.49 1266.2 1213.18 1232.97C1156.01 1188.04 1091.09 1192.04 1022.7 1191.99C942.802 1191.95 862.925 1191.88 783.031 1191.84C751.086 1191.84 719.119 1191.8 687.173 1191.77C597.2 1191.71 507.204 1191.67 417.231 1191.6C381.839 1191.58 346.381 1191.03 310.989 1191.54C250.744 1192.36 192.847 1183.15 134.621 1206.24C86.2755 1225.4 44.1203 1262.03 22.7138 1309.43C-14.5007 1391.83 5.50153 1500.6 4.3379 1588.57C3.76706 1630.68 4.27195 1672.84 4.24999 1714.95C4.20608 1775.23 19.5082 1832.27 62.6945 1876.61C97.5379 1912.37 145.84 1934.68 195.657 1938.04C195.371 1936.7 192.781 1937.84 194.142 1937.84C341.485 1937.95 488.807 1938.01 636.15 1938.08C739.23 1938.13 842.226 1938.1 945.282 1938.85C969.192 1939.02 993.119 1939.2 1017.03 1939.38C1076.69 1939.82 1139.46 1939.48 1191.47 1910.24C1220.38 1894 1244.29 1869.38 1261.22 1840.84C1275.03 1817.57 1284.34 1791.49 1287.08 1764.57C1290.94 1811.77 1291.69 1859.22 1289.3 1906.51C1288.6 1920.34 1286.29 1938.23 1304.19 1938.23C1358.59 1938.23 1413.02 1938.3 1467.42 1938.44C1494.63 1938.5 1521.83 1938.58 1549.03 1938.72C1562.65 1938.79 1576.23 1938.85 1589.85 1938.92C1598.52 1938.96 1616.06 1942.83 1621.2 1933.39C1623.46 1929.21 1623.53 1924.22 1623.53 1919.48C1623.53 1896.1 1623.53 1872.7 1623.53 1849.32L1623.51 1849.29ZM1222.05 1567.6L1221.57 1577.18L1220.14 1586.64L1217.79 1595.93L1214.55 1604.95L1210.43 1613.6L1205.5 1621.81L1199.77 1629.5L1193.31 1636.59L1186.2 1643L1178.49 1648.68L1170.26 1653.6L1161.59 1657.69L1152.56 1660.89L1143.28 1663.2L1133.79 1664.59L1124.21 1665.04L432.578 1663.84L423.006 1663.35L413.543 1661.93L404.256 1659.58L395.233 1656.33L386.581 1652.22L378.37 1647.29L370.686 1641.55L363.594 1635.1L357.184 1627.98L351.496 1620.28L346.579 1612.04L342.495 1603.38L339.289 1594.35L336.984 1585.06L335.601 1575.58L335.14 1566V1561.35L335.645 1551.77L337.072 1542.31L339.421 1533.03L342.67 1524L346.777 1515.35L351.716 1507.14L357.446 1499.46L363.902 1492.37L371.015 1485.95L378.722 1480.26L386.955 1475.35L395.627 1471.26L404.651 1468.06L413.938 1465.75L423.423 1464.37L432.995 1463.91L1124.64 1465.12L1134.21 1465.6L1143.67 1467.03L1152.95 1469.38L1161.98 1472.63L1170.63 1476.73L1178.84 1481.67L1186.53 1487.4L1193.62 1493.86L1200.03 1500.97L1205.72 1508.68L1210.64 1516.91L1214.72 1525.58L1217.92 1534.6L1220.23 1543.9L1221.61 1553.38L1222.08 1562.95V1567.6H1222.05Z" stroke="#33A571" stroke-width="8" mask="url(#path-2-inside-1_57_56)"/>
</svg>
