<svg width="200" height="110" viewBox="0 0 200 110" fill="none" xmlns="http://www.w3.org/2000/svg">
<path d="M19.6445 17.6677C19.7326 18.1502 19.8848 18.6208 20.103 19.0593C20.1431 19.1413 20.1951 19.2294 20.2832 19.2534C20.4153 19.2894 20.5314 19.1614 20.6095 19.0472C21.8669 17.2413 23.4727 15.6815 25.3147 14.4762C25.3968 14.4222 25.4829 14.3661 25.537 14.284C25.6071 14.1739 25.611 14.0378 25.619 13.9076C25.6611 13.1047 25.8874 12.3099 26.2758 11.6051C26.2297 12.384 26.1816 13.1628 26.1356 13.9416C27.8595 13.0687 29.5853 12.1957 31.3092 11.3228C31.4313 11.2607 31.5575 11.1946 31.6276 11.0785C31.6917 10.9703 31.6956 10.8382 31.7056 10.7141C31.7657 9.94926 32.1081 9.20851 32.6507 8.66791C32.4725 9.40872 32.2963 10.1495 32.1181 10.8903C34.3385 9.8211 36.4169 8.45566 38.2769 6.8419C38.373 7.07615 38.2008 7.33041 38.0366 7.52262C36.557 9.2405 34.7511 10.6781 32.7449 11.7352C33.2054 12.2158 33.8661 12.498 34.5308 12.504C33.9942 12.6562 33.4096 12.6342 32.887 12.44C32.6668 12.3599 32.4525 12.2478 32.2203 12.2358C31.934 12.2198 31.6616 12.3559 31.4074 12.4901C29.8236 13.313 28.2399 14.1358 26.7202 15.0689C27.6392 15.169 28.5582 15.2711 29.4772 15.3712C28.7284 15.6115 27.9256 15.6876 27.1447 15.5935C26.8243 15.5554 26.498 15.4873 26.1797 15.5534C25.8033 15.6295 25.4889 15.8838 25.2046 16.1441C24.5018 16.7888 23.8912 17.5315 23.3926 18.3444C23.1664 18.7108 22.9601 19.1033 22.9061 19.5317C22.824 20.1805 23.1924 20.627 23.6028 21.0735C24.5359 21.9184 25.567 22.7713 26.8404 23.0056C27.8855 23.1978 28.9647 22.9255 29.9378 22.497C31.065 22.0005 32.1962 21.3718 33.2233 20.691L33.7379 20.3166L34.2265 19.9262L34.3806 19.782L34.5748 19.5718C34.6248 19.5178 34.6749 19.4336 34.737 19.3956C34.775 19.3715 34.8311 19.3716 34.8611 19.4056C34.8792 19.4277 34.8832 19.4557 34.8852 19.4837C34.9192 19.8481 34.805 20.2045 34.729 20.5569C34.7029 20.675 34.813 20.613 34.8671 20.5809C34.9212 20.5489 34.9893 20.5209 35.0373 20.4808C37.3839 18.4286 39.7865 15.7857 40.7796 12.7824C40.4152 13.0026 40.0268 13.1828 39.6203 13.315C39.8606 13.2369 40.261 12.0876 40.3811 11.8453C40.6514 11.2987 40.9117 10.7481 41.16 10.1935C41.6345 9.13235 42.041 8.04724 42.4635 6.96605C43.0501 5.46441 43.4385 3.88461 43.6167 2.28086C43.6467 2.00856 43.901 0.0304667 43.6187 0.000433913C43.4425 -0.0175858 43.1301 0.530967 43.03 0.6531L42.4834 1.22169L41.8367 1.81443L41.152 2.38302L40.4392 2.91759L39.6884 3.42615L38.9076 3.90265L38.0906 4.35119L37.2538 4.76365C35.3757 5.69066 33.3135 6.32732 31.2612 6.72575C31.3493 6.25924 31.5075 5.80475 31.7277 5.38229C29.6995 5.74068 27.7294 6.49953 26.0595 7.70084C24.1915 9.04431 22.9381 10.8422 22.0712 12.9505L22.0111 13.0607L21.9411 13.1127L21.3644 13.2949C20.5735 13.6213 20.095 14.214 19.8247 15.0209C19.5404 15.8698 19.4823 16.7928 19.6425 17.6738L19.6445 17.6677Z" fill="white"/>
<path d="M62.215 70.8594C62.215 68.3126 62.215 65.7679 62.215 63.2211V52.7036C62.215 49.0636 62.5654 45.2234 61.9227 41.6255C61.268 37.9635 59.2958 34.5497 56.4527 32.1511C53.113 29.334 49.0846 28.365 44.8239 28.363C42.123 28.363 39.42 28.361 36.7191 28.3589C32.7307 28.3589 28.7444 28.355 24.756 28.353C20.9078 28.353 17.0596 28.3489 13.2094 28.3469C11.001 28.3469 8.79257 28.355 6.58216 28.371C5.44692 28.379 4.31172 28.389 3.17648 28.399C2.62388 28.405 2.07127 28.411 1.52067 28.417C1.1803 28.421 0.50553 28.2629 0.287292 28.5993C0.165159 28.7875 0.161178 29.0277 0.161178 29.254C0.161178 29.8206 0.161178 30.3872 0.161178 30.9538C0.161178 33.2002 0.161178 35.4448 0.161178 37.6912C0.161178 38.1357 0.415495 38.2958 0.851972 38.2978C6.52617 38.3199 12.2003 38.3339 17.8725 38.3359C21.1801 38.3359 24.4878 38.3359 27.7954 38.3359C30.6165 38.3359 33.4395 38.3359 36.2606 38.3359C37.1375 38.3359 38.0126 38.3359 38.8895 38.3359C40.7576 38.3359 42.6936 38.1937 44.4816 38.8404C45.5327 39.2188 46.4818 39.8636 47.2527 40.6705C49.8455 43.3834 49.4391 47.0114 49.4511 50.4632L49.433 51.0698L49.359 51.8887C49.345 52.0308 49.331 52.175 49.3169 52.3172C48.9846 50.321 48.1116 48.513 46.4898 47.2396C44.2994 45.5178 41.8107 45.6719 39.1899 45.6699C36.1285 45.6699 33.0671 45.6659 30.0058 45.6639C28.7805 45.6639 27.5571 45.6639 26.3318 45.6619C22.884 45.6599 19.4362 45.6579 15.9884 45.6559C14.631 45.6559 13.2735 45.6339 11.9181 45.6539C9.60955 45.686 7.39107 45.3315 5.15863 46.2185C3.30661 46.9533 1.69086 48.3568 0.86996 50.1728C-0.555598 53.3303 0.211236 57.4989 0.165186 60.8706C0.143162 62.4843 0.16318 64.1001 0.161178 65.7138C0.161178 68.0244 0.745805 70.2087 2.40161 71.9086C3.73707 73.2781 5.58713 74.135 7.49722 74.2631C7.48521 74.2111 7.38709 74.2551 7.43915 74.2551C13.0853 74.2591 18.7315 74.2612 24.3777 74.2652C28.328 74.2652 32.2743 74.2652 36.2246 74.2952C37.1416 74.3012 38.0586 74.3092 38.9736 74.3152C41.2601 74.3312 43.6647 74.3192 45.6569 73.1999C46.7661 72.5773 47.6811 71.6343 48.3298 70.5411C48.8584 69.6501 49.2148 68.649 49.321 67.6179C49.4691 69.4258 49.4971 71.2458 49.405 73.0578C49.379 73.5884 49.2908 74.2732 49.9756 74.2732C52.0599 74.2732 54.1462 74.2752 56.2305 74.2812C57.2736 74.2832 58.3148 74.2872 59.3579 74.2912C59.8785 74.2932 60.401 74.2952 60.9216 74.2992C61.254 74.2992 61.9267 74.4493 62.1229 74.087C62.209 73.9268 62.213 73.7365 62.211 73.5543C62.211 72.6574 62.211 71.7624 62.211 70.8655L62.215 70.8594ZM46.8322 60.0657L46.8142 60.432L46.7601 60.7944L46.67 61.1508L46.5459 61.4972L46.3877 61.8296L46.1975 62.1439L45.9792 62.4382L45.733 62.7106L45.4607 62.9568L45.1664 63.175L44.852 63.3632L44.5196 63.5194L44.1732 63.6416L43.8169 63.7296L43.4545 63.7837L43.0881 63.8017L16.5852 63.7556L16.2188 63.7377L15.8564 63.6836L15.4999 63.5935L15.1535 63.4694L14.8212 63.3112L14.5068 63.121L14.2126 62.9028L13.9402 62.6565L13.6939 62.3841L13.4757 62.0899L13.2875 61.7755L13.1314 61.4432L13.0092 61.0968L12.9211 60.7403L12.8671 60.378L12.8491 60.0116V59.8334L12.8671 59.467L12.9211 59.1046L13.0113 58.7482L13.1353 58.4018L13.2935 58.0694L13.4837 57.7551L13.702 57.4608L13.9482 57.1885L14.2206 56.9422L14.5149 56.724L14.8293 56.5357L15.1616 56.3796L15.5079 56.2575L15.8644 56.1694L16.2268 56.1154L16.5931 56.0973L43.0961 56.1433L43.4625 56.1614L43.8249 56.2155L44.1813 56.3055L44.5276 56.4297L44.86 56.5878L45.1743 56.778L45.4687 56.9963L45.741 57.2426L45.9872 57.5148L46.2055 57.8092L46.3937 58.1235L46.5499 58.4559L46.672 58.8023L46.7601 59.1586L46.8142 59.521L46.8322 59.8875V60.0657Z" fill="white"/>
<path d="M6.31689 104.608V82.3181H11.0981C12.878 82.3181 14.3237 83.7637 14.3237 85.4876V91.0477C14.3237 92.8256 12.8781 94.2712 11.1001 94.2712H9.54239V104.611H6.31689V104.608ZM9.54239 92.6574H10.3213C10.7658 92.6574 11.1001 92.323 11.1001 91.8786V84.7068C11.1001 84.2623 10.7658 83.8738 10.3213 83.8738C9.87678 83.8738 9.54239 84.2623 9.54239 84.7068V92.6574Z" fill="white"/>
<path d="M18.2632 104.608C16.4853 104.608 15.0938 103.219 15.0938 101.439V82.3181H18.2632V102.218C18.2632 102.662 18.5975 103.051 19.042 103.051H19.875V104.608H18.2632Z" fill="white"/>
<path d="M28.4583 90.2747V104.61H23.6731C21.8891 104.61 20.4375 103.219 20.4375 101.453V96.6677C20.4375 94.8837 21.8891 93.4902 23.6731 93.4902H25.2227V89.4898C25.2227 89.0594 24.8884 88.6669 24.4579 88.6669C24.0274 88.6669 23.6731 89.0594 23.6731 89.4898V92.6072H20.4375V90.2747C20.4375 88.5488 21.8891 87.0972 23.6731 87.0972H25.2227C27.0067 87.0972 28.4583 88.5488 28.4583 90.2747ZM25.2227 95.0599H24.4579C24.0074 95.0599 23.6731 95.4523 23.6731 95.8827V102.218C23.6731 102.668 24.0074 103.061 24.4579 103.061C24.9084 103.061 25.2227 102.668 25.2227 102.218V95.0599Z" fill="white"/>
<path d="M29.8438 104.608V90.2666C29.8438 88.5428 31.2893 87.0972 33.0673 87.0972H34.625C36.4029 87.0972 37.8485 88.5428 37.8485 90.2666V104.608H34.625V89.4898C34.625 89.0453 34.2907 88.6569 33.8462 88.6569C33.4017 88.6569 33.0673 89.0453 33.0673 89.4898V104.608H29.8438Z" fill="white"/>
<path d="M47.1742 101.439C47.1742 103.217 45.7286 104.608 43.9506 104.608H42.393C40.615 104.608 39.1694 103.219 39.1694 101.439V90.2646C39.1694 88.5407 40.615 87.0952 42.393 87.0952H43.9506C45.7286 87.0952 47.1742 88.5407 47.1742 90.2646V96.6576H42.393V102.218C42.393 102.662 42.7273 103.051 43.1718 103.051C43.6162 103.051 43.9506 102.662 43.9506 102.218V98.2694H47.1742V101.439ZM43.1698 88.6549C42.7253 88.6549 42.3909 89.0433 42.3909 89.4878V95.0479H43.9487V89.4878C43.9487 89.0433 43.6163 88.6549 43.1698 88.6549Z" fill="white"/>
<path d="M46.9774 106.999C46.9774 107.444 47.3098 107.832 47.7563 107.832C48.2028 107.832 48.5351 107.444 48.5351 106.999V87.0994H51.7587V106.22C51.7587 107.998 50.3131 109.39 48.5892 109.39H46.9234C45.1995 109.39 43.7539 107.998 43.7539 106.22V105.497H46.9774V106.999ZM48.5351 82.3181H51.7587V85.4876H48.5351V82.3181Z" fill="white"/>
<path d="M61.0725 90.2747V104.61H56.2873C54.5034 104.61 53.0518 103.219 53.0518 101.453V96.6677C53.0518 94.8837 54.5034 93.4902 56.2873 93.4902H57.837V89.4898C57.837 89.0594 57.5026 88.6669 57.0722 88.6669C56.6417 88.6669 56.2873 89.0594 56.2873 89.4898V92.6072H53.0518V90.2747C53.0518 88.5488 54.5034 87.0972 56.2873 87.0972H57.837C59.6209 87.0972 61.0725 88.5488 61.0725 90.2747ZM57.837 95.0599H57.0722C56.6217 95.0599 56.2873 95.4523 56.2873 95.8827V102.218C56.2873 102.668 56.6217 103.061 57.0722 103.061C57.5227 103.061 57.837 102.668 57.837 102.218V95.0599Z" fill="white"/>
<path d="M62.457 104.608V90.2666C62.457 88.5428 63.9026 87.0972 65.6806 87.0972H67.2382C68.1292 87.0972 68.85 87.82 68.85 88.6549C68.85 87.822 69.5708 87.0972 70.4618 87.0972H72.0194C73.7974 87.0972 75.243 88.5428 75.243 90.2666V104.608H72.0175V89.4898C72.0175 89.0453 71.6851 88.6569 71.2386 88.6569C70.7921 88.6569 70.4597 89.0453 70.4597 89.4898V104.608H67.2363V89.4898C67.2363 89.0453 66.9039 88.6569 66.4574 88.6569C66.0109 88.6569 65.6785 89.0453 65.6785 89.4898V104.608H62.457Z" fill="white"/>
<path d="M84.5829 101.439C84.5829 103.217 83.1373 104.608 81.3593 104.608H79.8017C78.0237 104.608 76.5781 103.219 76.5781 101.439V90.2646C76.5781 88.5407 78.0237 87.0952 79.8017 87.0952H81.3593C83.1373 87.0952 84.5829 88.5407 84.5829 90.2646V96.6576H79.8017V102.218C79.8017 102.662 80.1361 103.051 80.5805 103.051C81.025 103.051 81.3593 102.662 81.3593 102.218V98.2694H84.5829V101.439ZM80.5785 88.6549C80.134 88.6549 79.7997 89.0433 79.7997 89.4878V95.0479H81.3574V89.4878C81.3574 89.0433 81.025 88.6549 80.5785 88.6549Z" fill="white"/>
<path d="M85.8789 104.608V90.2666C85.8789 88.5428 87.3245 87.0972 89.1024 87.0972H90.6601C92.4381 87.0972 93.8837 88.5428 93.8837 90.2666V104.608H90.6601V89.4898C90.6601 89.0453 90.3257 88.6569 89.8812 88.6569C89.4367 88.6569 89.1024 89.0453 89.1024 89.4898V104.608H85.8789Z" fill="white"/>
<path d="M98.4799 104.608C96.7019 104.608 95.2563 103.219 95.2563 101.439V82.3181H98.4799V87.0994H100.87V88.6551H98.4799V102.22C98.4799 102.664 98.8143 103.053 99.2588 103.053H100.87V104.611H98.4799V104.608Z" fill="white"/>
<path d="M109.44 101.439C109.44 103.217 107.994 104.608 106.271 104.608H104.659C102.935 104.608 101.489 103.219 101.489 101.439V90.2666C101.489 88.5428 102.935 87.0972 104.659 87.0972H106.271C107.994 87.0972 109.44 88.5428 109.44 90.2666V101.439ZM104.659 102.218C104.659 102.662 105.047 103.051 105.438 103.051C105.882 103.051 106.271 102.662 106.271 102.218V89.4898C106.271 89.0453 105.882 88.6569 105.438 88.6569C105.049 88.6569 104.659 89.0453 104.659 89.4898V102.218Z" fill="white"/>
<path d="M116.372 85.4876C116.372 83.7637 117.817 82.3181 119.541 82.3181H121.153C122.931 82.3181 124.376 83.7637 124.376 85.4876V104.608H121.153V94.2692H119.541V104.608H116.372V85.4896V85.4876ZM121.153 84.7087C121.153 84.2642 120.818 83.8759 120.374 83.8759C119.93 83.8759 119.541 84.2642 119.541 84.7087V92.6595H121.153V84.7087Z" fill="white"/>
<path d="M125.802 104.608V90.2666C125.802 88.5428 127.247 87.0972 129.025 87.0972H130.583C131.474 87.0972 132.195 87.82 132.195 88.6549C132.195 87.822 132.916 87.0972 133.807 87.0972H135.364C137.142 87.0972 138.588 88.5428 138.588 90.2666V104.608H135.362V89.4898C135.362 89.0453 135.03 88.6569 134.583 88.6569C134.137 88.6569 133.805 89.0453 133.805 89.4898V104.608H130.581V89.4898C130.581 89.0453 130.249 88.6569 129.802 88.6569C129.356 88.6569 129.023 89.0453 129.023 89.4898V104.608H125.802Z" fill="white"/>
<path d="M140.027 82.3181H143.194V87.0994H144.808C146.586 87.0994 147.978 88.5449 147.978 90.2688V101.441C147.978 103.219 146.588 104.611 144.808 104.611H140.027V82.3202V82.3181ZM143.194 102.218C143.194 102.662 143.583 103.049 144.027 103.049C144.472 103.049 144.806 102.66 144.806 102.216V89.488C144.806 89.0435 144.474 88.6551 144.027 88.6551H143.194V102.22V102.218Z" fill="white"/>
<path d="M149.353 82.3181H152.576V85.4876H149.353V82.3181ZM149.353 87.0994H152.576V104.608H149.353V87.0994Z" fill="white"/>
<path d="M161.969 101.439C161.969 103.217 160.524 104.608 158.746 104.608H157.188C155.41 104.608 153.964 103.219 153.964 101.439V90.2646C153.964 88.5407 155.41 87.0952 157.188 87.0952H158.746C160.524 87.0952 161.969 88.5407 161.969 90.2646V96.6576H157.188V102.218C157.188 102.662 157.522 103.051 157.967 103.051C158.411 103.051 158.746 102.662 158.746 102.218V98.2694H161.969V101.439ZM157.965 88.6549C157.52 88.6549 157.186 89.0433 157.186 89.4878V95.0479H158.744V89.4878C158.744 89.0433 158.411 88.6549 157.965 88.6549Z" fill="white"/>
<path d="M163.265 104.608V90.2666C163.265 88.5428 164.711 87.0972 166.489 87.0972H168.046C169.824 87.0972 171.27 88.5428 171.27 90.2666V104.608H168.046V89.4898C168.046 89.0453 167.712 88.6569 167.268 88.6569C166.823 88.6569 166.489 89.0453 166.489 89.4898V104.608H163.265Z" fill="white"/>
<path d="M175.867 104.608C174.089 104.608 172.643 103.219 172.643 101.439V82.3181H175.867V87.0994H178.257V88.6551H175.867V102.22C175.867 102.664 176.201 103.053 176.645 103.053H178.257V104.611H175.867V104.608Z" fill="white"/>
<path d="M186.819 90.2747V104.61H182.033C180.249 104.61 178.798 103.219 178.798 101.453V96.6677C178.798 94.8837 180.249 93.4902 182.033 93.4902H183.583V89.4898C183.583 89.0594 183.249 88.6669 182.818 88.6669C182.388 88.6669 182.033 89.0594 182.033 89.4898V92.6072H178.798V90.2747C178.798 88.5488 180.249 87.0972 182.033 87.0972H183.583C185.367 87.0972 186.819 88.5488 186.819 90.2747ZM183.583 95.0599H182.818C182.368 95.0599 182.033 95.4523 182.033 95.8827V102.218C182.033 102.668 182.368 103.061 182.818 103.061C183.269 103.061 183.583 102.668 183.583 102.218V95.0599Z" fill="white"/>
<path d="M191.372 104.608C189.594 104.608 188.203 103.219 188.203 101.439V82.3181H191.372V102.218C191.372 102.662 191.706 103.051 192.151 103.051H192.984V104.608H191.372Z" fill="white"/>
<path d="M83.4765 74.3235C80.0247 74.3235 76.7652 73.1722 73.6978 70.8717C70.6304 68.5712 69.0967 63.9702 69.0967 57.0667V45.5621C69.0967 38.6606 70.6304 34.0575 73.6978 31.757C76.7652 29.4565 80.0247 28.3052 83.4765 28.3052H125.466V39.8097H87.5028C85.9692 39.8097 84.914 40.2903 84.3394 41.2473C83.7648 42.2064 83.4765 43.2596 83.4765 44.4109V59.9418C83.4765 61.0931 83.7648 62.0521 84.3394 62.8169C84.914 63.5838 85.9692 63.9682 87.5028 63.9682H109.935C110.558 63.9682 111.097 63.7519 111.553 63.3215C112.008 62.891 112.236 62.3404 112.236 61.6677V59.3672C112.236 58.7445 112.008 58.2059 111.553 57.7494C111.097 57.2949 110.558 57.0667 109.935 57.0667H96.7069V47.7004H113.962C117.796 47.7004 121.242 48.7476 123.228 50.4154C125.641 52.4416 126.616 54.3817 126.616 58.2159V62.8169C126.616 66.6531 125.464 69.5282 123.164 71.4443C120.863 73.3624 117.796 74.3195 113.962 74.3195H83.4765V74.3235Z" fill="white"/>
<path d="M134.797 74.3239V28.3096H147.088V74.3239H134.797Z" fill="white"/>
<path d="M164.619 74.3239C160.942 74.4661 156.257 68.7118 156.257 65.1219V28.3096H168.365V60.3747C168.365 61.1415 171.414 63.9726 172.181 63.9726H199.999V74.3259H164.616L164.619 74.3239Z" fill="white"/>
</svg>
