<svg width="200" height="239" viewBox="0 0 200 239" fill="none" xmlns="http://www.w3.org/2000/svg">
<path d="M63.0481 56.7264C63.329 58.2739 63.8205 59.7835 64.5172 61.1932C64.6468 61.4551 64.8116 61.7386 65.0952 61.8142C65.5218 61.9304 65.8891 61.5172 66.1429 61.1553C70.1776 55.3599 75.3356 50.3505 81.2444 46.486C81.509 46.3132 81.7845 46.1322 81.9574 45.8676C82.1842 45.5165 82.1978 45.0736 82.2194 44.6577C82.3517 42.0787 83.0781 39.5321 84.3258 37.269C84.1745 39.7698 84.0232 42.2704 83.872 44.7711C89.4081 41.9679 94.9416 39.1675 100.478 36.3643C100.867 36.1672 101.277 35.9511 101.501 35.5784C101.709 35.2328 101.723 34.8088 101.752 34.4091C101.944 31.9543 103.043 29.5778 104.788 27.8414C104.218 30.2179 103.648 32.5944 103.078 34.9736C110.205 31.5439 116.875 27.1609 122.849 21.9759C123.16 22.7293 122.606 23.5421 122.074 24.1606C117.324 29.6778 111.528 34.2903 105.085 37.6822C106.565 39.2215 108.682 40.1315 110.818 40.1477C109.098 40.6365 107.221 40.5663 105.544 39.9452C104.839 39.6859 104.15 39.3268 103.4 39.2863C102.479 39.2377 101.609 39.6752 100.788 40.0992C95.7059 42.7377 90.6181 45.3814 85.7409 48.379C88.6926 48.7031 91.6415 49.0272 94.5932 49.3512C92.1871 50.1209 89.6134 50.3667 87.1073 50.0642C86.0757 49.94 85.0279 49.7267 84.0124 49.9346C82.8026 50.1803 81.7927 50.9931 80.8853 51.8276C78.6331 53.8989 76.6698 56.2836 75.0683 58.8923C74.3446 60.0697 73.6829 61.3309 73.5073 62.7027C73.24 64.7849 74.4255 66.2216 75.7461 67.6475C78.7383 70.3588 82.0519 73.0971 86.1378 73.8479C89.4919 74.4636 92.9594 73.5913 96.0785 72.2168C99.7 70.6207 103.327 68.6061 106.622 66.4214L108.274 65.217L109.843 63.9666L110.34 63.5021L110.964 62.8269C111.123 62.6541 111.288 62.3814 111.488 62.2572C111.612 62.1816 111.79 62.1788 111.885 62.2868C111.944 62.3543 111.955 62.4517 111.966 62.5408C112.077 63.7074 111.712 64.8552 111.469 65.984C111.388 66.3621 111.739 66.165 111.912 66.0623C112.085 65.9597 112.306 65.8705 112.457 65.7408C119.986 59.1515 127.699 50.6718 130.891 41.0282C129.722 41.7384 128.472 42.3137 127.173 42.7377C127.942 42.4865 129.228 38.7975 129.614 38.0197C130.481 36.2671 131.315 34.5009 132.115 32.7158C133.64 29.3104 134.942 25.8268 136.298 22.3566C138.183 17.5361 139.428 12.4645 139.998 7.31998C140.095 6.44771 140.91 0.0959878 140.003 0.00146862C139.439 -0.0579435 138.431 1.70281 138.115 2.09439L136.363 3.92267L134.289 5.82387L132.088 7.64938L129.8 9.36425L127.391 10.9954L124.885 12.5266L122.26 13.9686C122.26 13.9686 119.741 15.211 119.573 15.292C113.543 18.2653 106.924 20.3096 100.34 21.5896C100.626 20.0881 101.134 18.6326 101.841 17.2796C95.3332 18.4273 89.0112 20.8632 83.6452 24.7223C77.65 29.0324 73.6234 34.8061 70.8419 41.5709L70.6501 41.9275L70.4233 42.0922L68.5708 42.6755C66.0296 43.7207 64.4956 45.6246 63.6287 48.2171C62.7159 50.9446 62.5296 53.9044 63.0427 56.7319L63.0481 56.7264Z" fill="white"/>
<path d="M199.694 227.463C199.694 219.291 199.694 211.12 199.694 202.945V169.183C199.694 157.5 200.82 145.17 198.754 133.622C196.65 121.867 190.325 110.91 181.195 103.211C170.476 94.1696 157.543 91.0613 143.868 91.0532C135.196 91.0478 126.525 91.0451 117.853 91.0397C105.056 91.0343 92.255 91.0263 79.4571 91.0209C67.1021 91.0155 54.7497 91.0073 42.3947 91.0019C35.3058 90.9992 28.2142 91.029 21.1253 91.0776C17.4822 91.1019 13.8391 91.1342 10.1961 91.1693C8.42451 91.1855 6.65027 91.2044 4.87871 91.226C3.78498 91.2395 1.62187 90.7345 0.917023 91.812C0.522743 92.417 0.509172 93.1866 0.509172 93.9104C0.509172 95.7278 0.509172 97.5481 0.509172 99.3655C0.509172 106.573 0.509172 113.784 0.509172 120.992C0.509172 122.42 1.3248 122.933 2.72908 122.939C20.9416 123.006 39.1541 123.057 57.3639 123.06C67.9798 123.06 78.5955 123.063 89.2114 123.065C98.269 123.065 107.329 123.068 116.387 123.071C119.198 123.071 122.012 123.071 124.824 123.071C130.819 123.071 137.036 122.617 142.774 124.689C146.147 125.907 149.193 127.972 151.67 130.565C159.99 139.274 158.689 150.919 158.729 161.997L158.67 163.944L158.435 166.574C158.389 167.033 158.346 167.492 158.297 167.951C157.233 161.543 154.427 155.742 149.223 151.654C142.191 146.128 134.205 146.62 125.793 146.614C115.966 146.609 106.141 146.601 96.3139 146.595C92.3846 146.595 88.4526 146.59 84.5233 146.587C73.4564 146.579 62.3868 146.574 51.32 146.566C46.9667 146.563 42.6054 146.496 38.2521 146.558C30.8418 146.66 23.7204 145.526 16.5586 148.367C10.612 150.724 5.42686 155.229 2.79383 161.059C-1.78361 171.195 0.676695 184.573 0.533566 195.394C0.463352 200.574 0.525454 205.759 0.522753 210.939C0.517352 218.354 2.39953 225.37 7.71151 230.823C11.9973 235.222 17.9385 237.966 24.0661 238.379C24.0309 238.214 23.7123 238.355 23.8797 238.355C42.0031 238.368 60.1239 238.376 78.2473 238.384C90.9263 238.39 103.595 238.387 116.271 238.479C119.212 238.5 122.155 238.522 125.096 238.544C132.434 238.598 140.155 238.557 146.552 234.96C150.109 232.962 153.05 229.934 155.132 226.424C156.83 223.561 157.976 220.353 158.313 217.042C158.788 222.848 158.88 228.684 158.586 234.501C158.499 236.202 158.216 238.403 160.417 238.403C167.109 238.403 173.803 238.411 180.495 238.428C183.841 238.436 187.187 238.446 190.533 238.463C192.208 238.471 193.879 238.479 195.554 238.487C196.62 238.492 198.778 238.968 199.41 237.807C199.688 237.293 199.696 236.68 199.696 236.097C199.696 233.221 199.696 230.342 199.696 227.466L199.694 227.463ZM150.314 192.815L150.255 193.993L150.079 195.157L149.79 196.299L149.391 197.409L148.885 198.473L148.278 199.483L147.573 200.428L146.779 201.3L145.904 202.089L144.956 202.788L143.944 203.393L142.877 203.896L141.767 204.29L140.625 204.574L139.458 204.744L138.28 204.8L53.2077 204.652L52.0303 204.592L50.8664 204.417L49.724 204.128L48.6142 203.728L47.55 203.223L46.5401 202.616L45.5949 201.911L44.7226 201.117L43.9341 200.242L43.2345 199.294L42.6297 198.281L42.1274 197.215L41.733 196.105L41.4495 194.962L41.2794 193.796L41.2227 192.618V192.046L41.2848 190.868L41.4603 189.704L41.7492 188.562L42.1489 187.452L42.654 186.388L43.2616 185.378L43.9664 184.433L44.7605 183.561L45.6354 182.772L46.5833 182.072L47.596 181.468L48.6627 180.965L49.7726 180.571L50.9149 180.287L52.0816 180.117L53.259 180.061L138.332 180.209L139.509 180.269L140.673 180.444L141.815 180.733L142.925 181.133L143.989 181.638L144.999 182.245L145.945 182.95L146.817 183.744L147.605 184.619L148.305 185.567L148.91 186.58L149.412 187.646L149.806 188.756L150.09 189.899L150.26 191.065L150.317 192.243V192.815H150.314Z" fill="white"/>
</svg>
